<svg width="26" height="26" viewBox="0 0 26 26" fill="none" xmlns="http://www.w3.org/2000/svg">
<path fill-rule="evenodd" clip-rule="evenodd" d="M8.08712 1.15451C9.35787 1.09601 9.76304 1.08301 13 1.08301C16.237 1.08301 16.6422 1.09709 17.9119 1.15451C19.1815 1.21192 20.0482 1.41451 20.8065 1.70809C21.6006 2.00817 22.321 2.47726 22.9169 3.08392C23.5235 3.67867 23.9915 4.39801 24.2905 5.19317C24.5852 5.95151 24.7867 6.81817 24.8452 8.08567C24.9037 9.35859 24.9167 9.76376 24.9167 12.9997C24.9167 16.2367 24.9026 16.6418 24.8452 17.9126C24.7878 19.1801 24.5852 20.0468 24.2905 20.8051C23.9915 21.6004 23.5228 22.3209 22.9169 22.9165C22.321 23.5232 21.6006 23.9912 20.8065 24.2902C20.0482 24.5848 19.1815 24.7863 17.914 24.8448C16.6422 24.9033 16.237 24.9163 13 24.9163C9.76304 24.9163 9.35787 24.9023 8.08712 24.8448C6.81962 24.7874 5.95296 24.5848 5.19462 24.2902C4.39937 23.9911 3.67885 23.5224 3.08321 22.9165C2.47695 22.3214 2.0078 21.6012 1.70846 20.8062C1.41487 20.0478 1.21337 19.1812 1.15487 17.9137C1.09637 16.6408 1.08337 16.2356 1.08337 12.9997C1.08337 9.76268 1.09746 9.35751 1.15487 8.08784C1.21229 6.81817 1.41487 5.95151 1.70846 5.19317C2.00824 4.3981 2.47775 3.67793 3.08429 3.08284C3.67908 2.47672 4.39889 2.00757 5.19354 1.70809C5.95187 1.41451 6.81854 1.21301 8.08604 1.15451H8.08712ZM17.8155 3.29951C16.5588 3.24209 16.1818 3.23017 13 3.23017C9.81829 3.23017 9.44129 3.24209 8.18462 3.29951C7.02221 3.35259 6.39171 3.54651 5.97137 3.71009C5.41562 3.92676 5.01804 4.18351 4.60096 4.60059C4.20559 4.98523 3.90132 5.45348 3.71046 5.97101C3.54687 6.39134 3.35296 7.02184 3.29987 8.18426C3.24246 9.44092 3.23054 9.81792 3.23054 12.9997C3.23054 16.1814 3.24246 16.5584 3.29987 17.8151C3.35296 18.9775 3.54687 19.608 3.71046 20.0283C3.90112 20.5451 4.20554 21.0142 4.60096 21.3988C4.98554 21.7942 5.45462 22.0986 5.97137 22.2893C6.39171 22.4528 7.02221 22.6468 8.18462 22.6998C9.44129 22.7573 9.81721 22.7692 13 22.7692C16.1829 22.7692 16.5588 22.7573 17.8155 22.6998C18.9779 22.6468 19.6084 22.4528 20.0287 22.2893C20.5845 22.0726 20.982 21.8158 21.3991 21.3988C21.7945 21.0142 22.099 20.5451 22.2896 20.0283C22.4532 19.608 22.6471 18.9775 22.7002 17.8151C22.7576 16.5584 22.7695 16.1814 22.7695 12.9997C22.7695 9.81792 22.7576 9.44092 22.7002 8.18426C22.6471 7.02184 22.4532 6.39134 22.2896 5.97101C22.073 5.41526 21.8162 5.01767 21.3991 4.60059C21.0145 4.20525 20.5462 3.90099 20.0287 3.71009C19.6084 3.54651 18.9779 3.35259 17.8155 3.29951ZM11.478 16.6733C12.328 17.0271 13.2745 17.0749 14.1559 16.8084C15.0372 16.5419 15.7987 15.9777 16.3103 15.2121C16.8219 14.4465 17.0518 13.5271 16.9608 12.6109C16.8698 11.6946 16.4635 10.8384 15.8113 10.1884C15.3955 9.77294 14.8929 9.4548 14.3394 9.25692C13.7859 9.05903 13.1955 8.98632 12.6106 9.04401C12.0257 9.1017 11.4608 9.28837 10.9567 9.59057C10.4525 9.89277 10.0217 10.303 9.69512 10.7917C9.36856 11.2804 9.15441 11.8354 9.0681 12.4168C8.98179 12.9982 9.02545 13.5915 9.19596 14.154C9.36646 14.7165 9.65956 15.2342 10.0542 15.6698C10.4487 16.1054 10.935 16.4481 11.478 16.6733ZM8.66887 8.66851C9.23765 8.09973 9.91289 7.64855 10.656 7.34073C11.3992 7.03291 12.1957 6.87448 13 6.87448C13.8044 6.87448 14.6009 7.03291 15.3441 7.34073C16.0872 7.64855 16.7624 8.09973 17.3312 8.66851C17.9 9.23728 18.3512 9.91252 18.659 10.6557C18.9668 11.3988 19.1252 12.1953 19.1252 12.9997C19.1252 13.804 18.9668 14.6005 18.659 15.3437C18.3512 16.0868 17.9 16.7621 17.3312 17.3308C16.1825 18.4795 14.6245 19.1249 13 19.1249C11.3755 19.1249 9.81757 18.4795 8.66887 17.3308C7.52018 16.1821 6.87485 14.6242 6.87485 12.9997C6.87485 11.3752 7.52018 9.8172 8.66887 8.66851ZM20.4837 7.78667C20.6247 7.65372 20.7375 7.49383 20.8155 7.31648C20.8936 7.13913 20.9353 6.94792 20.9381 6.75418C20.9409 6.56044 20.9048 6.3681 20.832 6.18855C20.7591 6.009 20.651 5.84589 20.514 5.70888C20.377 5.57187 20.2139 5.46375 20.0343 5.3909C19.8548 5.31806 19.6624 5.28198 19.4687 5.28481C19.275 5.28763 19.0838 5.3293 18.9064 5.40735C18.7291 5.48539 18.5692 5.59823 18.4362 5.73917C18.1776 6.01329 18.0361 6.37739 18.0416 6.75418C18.047 7.13097 18.1992 7.49079 18.4656 7.75725C18.7321 8.02372 19.0919 8.17584 19.4687 8.18133C19.8455 8.18683 20.2096 8.04526 20.4837 7.78667Z" fill="white"/>
</svg>
