<?xml version="1.0" standalone="no"?>
<!DOCTYPE svg PUBLIC "-//W3C//DTD SVG 20010904//EN"
 "http://www.w3.org/TR/2001/REC-SVG-20010904/DTD/svg10.dtd">
<svg version="1.0" xmlns="http://www.w3.org/2000/svg"
 width="160.000000pt" height="149.000000pt" viewBox="0 0 160.000000 149.000000"
 preserveAspectRatio="xMidYMid meet">

<g transform="translate(0.000000,149.000000) scale(0.100000,-0.100000)"
fill="#ffffff" stroke="none">
<path d="M77 1433 c-4 -3 -7 -314 -7 -690 l0 -683 730 0 730 0 0 690 0 690
-723 0 c-398 0 -727 -3 -730 -7z m1403 -683 l0 -640 -680 0 -680 0 0 640 0
640 680 0 680 0 0 -640z"/>
<path d="M184 1307 c-3 -8 -4 -45 -2 -83 l3 -69 83 -3 82 -3 0 86 0 85 -80 0
c-58 0 -82 -4 -86 -13z"/>
<path d="M1170 840 l0 -320 50 0 50 0 0 320 0 320 -50 0 -50 0 0 -320z"/>
<path d="M540 835 l0 -317 158 4 c186 4 227 17 305 100 138 147 94 401 -87
496 -48 25 -60 27 -213 30 l-163 4 0 -317z m330 188 c66 -41 103 -116 97 -198
-6 -78 -36 -138 -89 -172 -36 -25 -53 -28 -135 -31 l-93 -4 0 214 c0 118 3
218 8 222 4 5 43 6 87 2 62 -4 89 -12 125 -33z"/>
<path d="M220 420 l0 -50 50 0 50 0 0 50 0 50 -50 0 -50 0 0 -50z"/>
<path d="M610 369 c0 -15 -4 -19 -16 -15 -24 9 -54 -12 -54 -37 0 -32 18 -47
57 -47 l33 0 0 60 c0 33 -4 60 -10 60 -5 0 -10 -9 -10 -21z m-2 -52 c4 -20
-25 -34 -40 -19 -15 15 -1 44 19 40 10 -2 19 -11 21 -21z"/>
<path d="M830 380 c0 -5 5 -10 11 -10 5 0 7 5 4 10 -3 6 -8 10 -11 10 -2 0 -4
-4 -4 -10z"/>
<path d="M1107 383 c-11 -10 -8 -101 3 -108 6 -4 10 17 10 54 0 62 -1 66 -13
54z"/>
<path d="M1232 333 c3 -54 4 -57 31 -60 35 -5 57 12 57 43 0 26 -30 47 -54 38
-12 -4 -16 0 -16 15 0 12 -5 21 -10 21 -7 0 -10 -22 -8 -57z m66 -16 c4 -20
-25 -34 -40 -19 -15 15 -1 44 19 40 10 -2 19 -11 21 -21z"/>
<path d="M660 346 c-27 -34 8 -88 46 -71 17 8 16 9 -8 13 -38 5 -36 22 2 22
35 0 41 23 11 40 -26 14 -36 13 -51 -4z m45 -16 c-3 -5 -13 -10 -21 -10 -8 0
-14 5 -14 10 0 6 9 10 21 10 11 0 17 -4 14 -10z"/>
<path d="M757 353 c-13 -12 -7 -43 7 -43 8 0 18 -5 22 -11 5 -9 -1 -10 -21 -5
-25 6 -27 6 -15 -9 17 -21 54 -15 58 8 3 12 -4 20 -17 24 -12 3 -21 10 -21 15
0 6 9 8 20 5 24 -6 27 8 4 17 -20 8 -29 8 -37 -1z"/>
<path d="M875 344 c-28 -29 -11 -64 32 -64 13 0 23 -5 23 -11 0 -7 -10 -9 -25
-7 -34 7 -43 -10 -10 -18 38 -9 55 11 55 65 0 44 -1 46 -30 48 -16 1 -36 -5
-45 -13z m52 -20 c7 -20 -17 -37 -34 -23 -15 13 -6 39 13 39 8 0 17 -7 21 -16z"/>
<path d="M993 353 c-19 -4 -23 -11 -23 -38 0 -44 18 -55 22 -13 4 45 32 45 36
1 4 -43 22 -43 22 0 0 30 -15 59 -29 56 -4 -1 -16 -4 -28 -6z"/>
<path d="M1163 353 c-21 -8 -15 -22 7 -16 11 3 20 1 20 -5 0 -6 -10 -12 -22
-14 -15 -2 -23 -10 -23 -23 0 -16 7 -20 35 -20 30 0 35 3 38 26 2 15 -4 34
-13 43 -17 17 -22 18 -42 9z m32 -53 c-3 -5 -13 -10 -21 -10 -8 0 -12 5 -9 10
3 6 13 10 21 10 8 0 12 -4 9 -10z"/>
<path d="M830 309 c0 -24 4 -38 10 -34 6 3 10 22 10 41 0 19 -4 34 -10 34 -5
0 -10 -18 -10 -41z"/>
<path d="M220 250 l0 -50 50 0 50 0 0 50 0 50 -50 0 -50 0 0 -50z"/>
</g>
</svg>
