<svg width="22" height="22" viewBox="0 0 22 22" fill="none" xmlns="http://www.w3.org/2000/svg">
<path d="M3.96519 8.71678L3.9029 8.21749L4.26672 7.86991L7.55672 4.72679C7.66829 4.61073 7.74471 4.46542 7.77708 4.30769C7.81008 4.14687 7.79589 3.97996 7.73621 3.82702C7.73594 3.82633 7.73567 3.82563 7.7354 3.82494L6.8173 1.52641C6.81702 1.52571 6.81673 1.52501 6.81644 1.5243C6.75367 1.37091 6.64705 1.23933 6.50981 1.14604C6.37296 1.05302 6.21177 1.00224 6.04627 1L1.82604 1C1.71432 1.00132 1.60399 1.02501 1.50158 1.06967C1.39817 1.11476 1.30498 1.18029 1.22762 1.26229C1.15026 1.3443 1.09032 1.44108 1.0514 1.5468C1.01301 1.65108 0.995831 1.76194 1.00085 1.87289C1.48561 9.63253 4.98934 14.2197 8.96164 16.972C12.9781 19.7548 17.5303 20.6954 20.0741 20.9952C20.1906 21.0077 20.3085 20.9957 20.42 20.9599C20.5324 20.9237 20.6359 20.8643 20.7236 20.7853C20.8112 20.7064 20.8812 20.6099 20.9288 20.502C20.9765 20.3942 21.0007 20.2775 21 20.1597L21 20.1597L21 20.1535L21 16.0705C20.9992 15.906 20.9494 15.7454 20.8569 15.6094C20.7641 15.4729 20.6325 15.3673 20.4791 15.3062L20.4786 15.306L18.1689 14.3842L18.1689 14.3842L18.1622 14.3815C18.0115 14.3201 17.8461 14.3044 17.6866 14.3364C17.5271 14.3685 17.3806 14.4467 17.2655 14.5615L17.2581 14.5688L17.2506 14.576L13.9481 17.731L13.5947 18.0686L13.1112 17.9972L13.2574 17.0079C13.1112 17.9972 13.1108 17.9971 13.1102 17.997L13.1091 17.9968L13.1062 17.9964L13.0984 17.9952L13.0749 17.9915C13.0557 17.9883 13.0296 17.9839 12.997 17.978C12.9318 17.9663 12.8405 17.9487 12.7265 17.924C12.4987 17.8747 12.1792 17.7966 11.7958 17.6791C11.0317 17.4447 9.99969 17.0493 8.93182 16.4021C6.77936 15.0977 4.469 12.7549 3.96519 8.71678Z" fill="black" stroke="black" stroke-width="2"/>
</svg>
