<svg width="18" height="18" viewBox="0 0 18 18" fill="none" xmlns="http://www.w3.org/2000/svg">
    <path d="M7.40312 13.0181L5.3047 10.8225C5.13499 10.6549 4.92028 10.5402 4.68662 10.4923C4.45297 10.4443 4.21043 10.4653 3.98845 10.5525L2.45282 11.1656C2.22849 11.2567 2.03614 11.4121 1.9 11.6123C1.76386 11.8125 1.69004 12.0486 1.68782 12.2906V15.1031C1.68913 15.2678 1.72375 15.4306 1.7896 15.5815C1.85545 15.7325 1.95116 15.8685 2.07098 15.9815C2.19081 16.0945 2.33225 16.1821 2.48681 16.239C2.64137 16.2959 2.80584 16.3209 2.97032 16.3125C13.7309 15.6431 15.9022 6.53065 16.3128 3.04315C16.3319 2.87189 16.3145 2.69853 16.2617 2.53448C16.209 2.37044 16.1221 2.21942 16.0068 2.09136C15.8915 1.96331 15.7504 1.86111 15.5927 1.79151C15.4351 1.7219 15.2645 1.68647 15.0922 1.68752H12.3753C12.1329 1.68824 11.8962 1.76147 11.6957 1.8978C11.4952 2.03413 11.3401 2.22732 11.2503 2.45252L10.6372 3.98815C10.5471 4.20925 10.5241 4.45201 10.5711 4.6861C10.6181 4.9202 10.733 5.13525 10.9016 5.3044L13 7.5C13 7.5 12.2744 12.4106 7.40312 13.0181Z" fill="#ffffff"/>
</svg>
